<svg version="1.1" xmlns="http://www.w3.org/2000/svg" viewBox="0 0 2531.0786432877003 928.3492793507191" width="2531.0786432877003" height="928.3492793507191">
  <!-- svg-source:excalidraw -->
  
  <defs>
    <style class="style-fonts">
      @font-face {
        font-family: "Virgil";
        src: url("https://excalidraw.com/Virgil.woff2");
      }
      @font-face {
        font-family: "Cascadia";
        src: url("https://excalidraw.com/Cascadia.woff2");
      }
    </style>
  </defs>
  <rect x="0" y="0" width="2531.0786432877003" height="928.3492793507191" fill="#ffffff"></rect><g stroke-linecap="round" transform="translate(2340.0786432877003 45.826398620807254) rotate(0 90.5 52)"><path d="M26 0 M26 0 C51.91 0, 77.82 0, 155 0 M155 0 C172.33 0, 181 8.67, 181 26 M181 26 C181 41.14, 181 56.29, 181 78 M181 78 C181 95.33, 172.33 104, 155 104 M155 104 C108.47 104, 61.93 104, 26 104 M26 104 C8.67 104, 0 95.33, 0 78 M0 78 C0 64.24, 0 50.48, 0 26 M0 26 C0 8.67, 8.67 0, 26 0" stroke="#000000" stroke-width="1.5" fill="none" stroke-dasharray="8 9"></path></g><g transform="translate(2404.5786432877003 84.32639862080725) rotate(0 26 13)"><text x="26" y="19" font-family="Virgil, Segoe UI Emoji" font-size="20px" fill="#000000" text-anchor="middle" style="white-space: pre;" direction="ltr">IPApi</text></g><g stroke-linecap="round" transform="translate(658.9829944866955 273.34927935071914) rotate(0 90.5 52)"><path d="M26 0 M26 0 C77.47 0, 128.94 0, 155 0 M155 0 C172.33 0, 181 8.67, 181 26 M181 26 C181 41.21, 181 56.43, 181 78 M181 78 C181 95.33, 172.33 104, 155 104 M155 104 C111.9 104, 68.81 104, 26 104 M26 104 C8.67 104, 0 95.33, 0 78 M0 78 C0 61.76, 0 45.52, 0 26 M0 26 C0 8.67, 8.67 0, 26 0" stroke="#000000" stroke-width="1.5" fill="none" stroke-dasharray="8 9"></path></g><g transform="translate(673.4829944866955 311.84927935071914) rotate(0 76 13)"><text x="76" y="19" font-family="Virgil, Segoe UI Emoji" font-size="20px" fill="#000000" text-anchor="middle" style="white-space: pre;" direction="ltr">Traffic Stream</text></g><g stroke-linecap="round" transform="translate(1700.078268376055 276.47906179076926) rotate(0 90.5 52)"><path d="M26 0 M26 0 C68.65 0, 111.29 0, 155 0 M155 0 C172.33 0, 181 8.67, 181 26 M181 26 C181 40.68, 181 55.36, 181 78 M181 78 C181 95.33, 172.33 104, 155 104 M155 104 C109.93 104, 64.87 104, 26 104 M26 104 C8.67 104, 0 95.33, 0 78 M0 78 C0 64.25, 0 50.5, 0 26 M0 26 C0 8.67, 8.67 0, 26 0" stroke="#000000" stroke-width="1.5" fill="none" stroke-dasharray="8 9"></path></g><g transform="translate(1764.578268376055 314.97906179076926) rotate(0 26 13)"><text x="26" y="19" font-family="Virgil, Segoe UI Emoji" font-size="20px" fill="#000000" text-anchor="middle" style="white-space: pre;" direction="ltr">Redis</text></g><g stroke-linecap="round" transform="translate(1005.9829944866955 271.34927935071914) rotate(0 90.5 52)"><path d="M26 0 M26 0 C75.3 0, 124.61 0, 155 0 M155 0 C172.33 0, 181 8.67, 181 26 M181 26 C181 42.87, 181 59.74, 181 78 M181 78 C181 95.33, 172.33 104, 155 104 M155 104 C116.16 104, 77.33 104, 26 104 M26 104 C8.67 104, 0 95.33, 0 78 M0 78 C0 63.9, 0 49.79, 0 26 M0 26 C0 8.67, 8.67 0, 26 0" stroke="#000000" stroke-width="1.5" fill="none" stroke-dasharray="8 9"></path></g><g transform="translate(1048.4829944866956 296.34927935071914) rotate(0 48 26)"><text x="48" y="19" font-family="Virgil, Segoe UI Emoji" font-size="20px" fill="#000000" text-anchor="middle" style="white-space: pre;" direction="ltr">Traffic </text><text x="48" y="45" font-family="Virgil, Segoe UI Emoji" font-size="20px" fill="#000000" text-anchor="middle" style="white-space: pre;" direction="ltr">Processor</text></g><g stroke-linecap="round"><g transform="translate(839.4829944866955 328.34927935071914) rotate(0 83 0)"><path d="M0 0 C27.67 0, 138.33 0, 166 0" stroke="#000000" stroke-width="1.5" fill="none" stroke-dasharray="8 9"></path></g></g><mask></mask><g stroke-linecap="round" transform="translate(1373.4467354216977 26.68886430023764) rotate(0 78 77.99999999999997)"><path d="M98.75 19.75 M98.75 19.75 C113.06 34.83, 127.38 49.91, 136.25 59.25 M136.25 59.25 C156 79, 156 79, 136.25 98.75 M136.25 98.75 C121.71 113.29, 107.18 127.82, 98.75 136.25 M98.75 136.25 C79 156, 79 156, 59.25 136.25 M59.25 136.25 C46.06 123.73, 32.87 111.21, 19.75 98.75 M19.75 98.75 C0 79, 0 79, 19.75 59.25 M19.75 59.25 C31.24 47.76, 42.72 36.28, 59.25 19.75 M59.25 19.75 C79 0, 79 0, 98.75 19.75" stroke="#000000" stroke-width="1.5" fill="none" stroke-dasharray="8 9"></path></g><g transform="translate(1415.9467354216977 91.18886430023781) rotate(0 35.5 13)"><text x="35.5" y="19" font-family="Virgil, Segoe UI Emoji" font-size="20px" fill="#000000" text-anchor="middle" style="white-space: pre;" direction="ltr">New IP</text></g><g stroke-linecap="round" transform="translate(1360.9467354216977 273.38553841571706) rotate(0 90.5 52)"><path d="M26 0 M26 0 C59.62 0, 93.24 0, 155 0 M155 0 C172.33 0, 181 8.67, 181 26 M181 26 C181 43.72, 181 61.45, 181 78 M181 78 C181 95.33, 172.33 104, 155 104 M155 104 C107.86 104, 60.72 104, 26 104 M26 104 C8.67 104, 0 95.33, 0 78 M0 78 C0 65.43, 0 52.86, 0 26 M0 26 C0 8.67, 8.67 0, 26 0" stroke="#000000" stroke-width="1.5" fill="none" stroke-dasharray="8 9"></path></g><g transform="translate(1384.4467354216977 311.88553841571706) rotate(0 67 13)"><text x="67" y="19" font-family="Virgil, Segoe UI Emoji" font-size="20px" fill="#000000" text-anchor="middle" style="white-space: pre;" direction="ltr">Log IP Event</text></g><g stroke-linecap="round" transform="translate(1495.4829944866956 814.3492793507191) rotate(0 90.5 52)"><path d="M26 0 M26 0 C58.84 0, 91.69 0, 155 0 M155 0 C172.33 0, 181 8.67, 181 26 M181 26 C181 39.1, 181 52.21, 181 78 M181 78 C181 95.33, 172.33 104, 155 104 M155 104 C104.98 104, 54.96 104, 26 104 M26 104 C8.67 104, 0 95.33, 0 78 M0 78 C0 64.29, 0 50.58, 0 26 M0 26 C0 8.67, 8.67 0, 26 0" stroke="#000000" stroke-width="1.5" fill="none" stroke-dasharray="8 9"></path></g><g transform="translate(1556.9829944866956 852.8492793507191) rotate(0 29 13)"><text x="29" y="19" font-family="Virgil, Segoe UI Emoji" font-size="20px" fill="#000000" text-anchor="middle" style="white-space: pre;" direction="ltr">Mongo</text></g><g stroke-linecap="round" transform="translate(1628.9829944866956 641.3492793507191) rotate(0 90.5 52)"><path d="M26 0 M26 0 C75.56 0, 125.12 0, 155 0 M155 0 C172.33 0, 181 8.67, 181 26 M181 26 C181 40.72, 181 55.44, 181 78 M181 78 C181 95.33, 172.33 104, 155 104 M155 104 C125.08 104, 95.17 104, 26 104 M26 104 C8.67 104, 0 95.33, 0 78 M0 78 C0 57.25, 0 36.5, 0 26 M0 26 C0 8.67, 8.67 0, 26 0" stroke="#000000" stroke-width="1.5" fill="none" stroke-dasharray="8 9"></path></g><g transform="translate(1678.9829944866956 679.8492793507191) rotate(0 40.5 13)"><text x="40.5" y="19" font-family="Virgil, Segoe UI Emoji" font-size="20px" fill="#000000" text-anchor="middle" style="white-space: pre;" direction="ltr">ip_data</text></g><g stroke-linecap="round" transform="translate(1360.9467354216977 639.3492793507191) rotate(0 90.5 52)"><path d="M26 0 M26 0 C55.9 0, 85.79 0, 155 0 M155 0 C172.33 0, 181 8.67, 181 26 M181 26 C181 38.51, 181 51.02, 181 78 M181 78 C181 95.33, 172.33 104, 155 104 M155 104 C112.32 104, 69.65 104, 26 104 M26 104 C8.67 104, 0 95.33, 0 78 M0 78 C0 58.7, 0 39.41, 0 26 M0 26 C0 8.67, 8.67 0, 26 0" stroke="#000000" stroke-width="1.5" fill="none" stroke-dasharray="8 9"></path></g><g transform="translate(1408.9467354216977 677.8492793507191) rotate(0 42.5 13)"><text x="42.5" y="19" font-family="Virgil, Segoe UI Emoji" font-size="20px" fill="#000000" text-anchor="middle" style="white-space: pre;" direction="ltr">ip_event</text></g><g stroke-linecap="round"><g transform="translate(1456.4829944866956 743.3492793507191) rotate(0 64.12195091717376 37.020825622994266)"><path d="M0 0 C21.37 12.34, 106.87 61.7, 128.24 74.04" stroke="#000000" stroke-width="1.5" fill="none" stroke-dasharray="8 9"></path></g></g><mask></mask><g stroke-linecap="round"><g transform="translate(1732.4829944866956 744.3492793507191) rotate(0 -60.947912811497076 35.18829386826383)"><path d="M0 0 C-20.32 11.73, -101.58 58.65, -121.9 70.38" stroke="#000000" stroke-width="1.5" fill="none" stroke-dasharray="8 9"></path></g></g><mask></mask><g transform="translate(1753.4829944866956 764.0620888210119) rotate(0 241 13)"><text x="241" y="19" font-family="Virgil, Segoe UI Emoji" font-size="20px" fill="#000000" text-anchor="middle" style="white-space: pre;" direction="ltr">IP data including location, asn, company, country</text></g><g transform="translate(747.3631667501282 764.0620888210119) rotate(0 345.5 13)"><text x="345.5" y="19" font-family="Virgil, Segoe UI Emoji" font-size="20px" fill="#000000" text-anchor="middle" style="white-space: pre;" direction="ltr">IP Event includes layers 3,4,7 of OSI Model plus metadata of event</text></g><g stroke-linecap="round"><g transform="translate(1451.1038230466113 378.3855384157172) rotate(0 -1.5301191970779087 129.98187046750098)"><path d="M0 0 C-0.51 43.33, -2.55 216.64, -3.06 259.96" stroke="#000000" stroke-width="1.5" fill="none" stroke-dasharray="8 9"></path></g><g transform="translate(1451.1038230466113 378.3855384157172) rotate(0 -1.5301191970779087 129.98187046750098)"><path d="M-12.99 231.65 C-10.38 239.1, -7.77 246.55, -3.06 259.96" stroke="#000000" stroke-width="1.5" fill="none"></path></g><g transform="translate(1451.1038230466113 378.3855384157172) rotate(0 -1.5301191970779087 129.98187046750098)"><path d="M7.53 231.9 C4.75 239.28, 1.96 246.66, -3.06 259.96" stroke="#000000" stroke-width="1.5" fill="none"></path></g></g><mask></mask><g stroke-linecap="round"><g transform="translate(1188.4829944866956 324.34927935071914) rotate(0 85.5 0)"><path d="M0 0 C28.5 0, 142.5 0, 171 0" stroke="#000000" stroke-width="1.5" fill="none" stroke-dasharray="8 9"></path></g></g><mask></mask><g stroke-linecap="round"><g transform="translate(1450.9900741990864 273.94248015123105) rotate(0 -5.684341886080802e-14 -49.6326581526078)"><path d="M0 0 C0 -16.54, 0 -82.72, 0 -99.27" stroke="#000000" stroke-width="1.5" fill="none" stroke-dasharray="8 9"></path></g></g><mask></mask><g stroke-linecap="round"><g transform="translate(1380.6369859439342 107.2152983958689) rotate(0 -141.18804697780686 82.39984994267894)"><path d="M0 0 C-47.06 27.47, -235.31 137.33, -282.38 164.8" stroke="#000000" stroke-width="1.5" fill="none" stroke-dasharray="8 9"></path></g><g transform="translate(1380.6369859439342 107.2152983958689) rotate(0 -141.18804697780686 82.39984994267894)"><path d="M-263.2 141.73 C-269.28 149.04, -275.36 156.36, -282.38 164.8" stroke="#000000" stroke-width="1.5" fill="none"></path></g><g transform="translate(1380.6369859439342 107.2152983958689) rotate(0 -141.18804697780686 82.39984994267894)"><path d="M-252.86 159.45 C-262.22 161.15, -271.58 162.84, -282.38 164.8" stroke="#000000" stroke-width="1.5" fill="none"></path></g></g><mask></mask><g transform="translate(1312.2400117138122 99.64278026587306) rotate(0 12.5 13)"><text x="12.5" y="19" font-family="Virgil, Segoe UI Emoji" font-size="20px" fill="#000000" text-anchor="middle" style="white-space: pre;" direction="ltr">No</text></g><g stroke-linecap="round" transform="translate(1702.6181061248299 52.68886430023758) rotate(0 90.5 52)"><path d="M26 0 M26 0 C60.98 0, 95.96 0, 155 0 M155 0 C172.33 0, 181 8.67, 181 26 M181 26 C181 44.88, 181 63.76, 181 78 M181 78 C181 95.33, 172.33 104, 155 104 M155 104 C109.94 104, 64.88 104, 26 104 M26 104 C8.67 104, 0 95.33, 0 78 M0 78 C0 63.57, 0 49.14, 0 26 M0 26 C0 8.67, 8.67 0, 26 0" stroke="#000000" stroke-width="1.5" fill="none" stroke-dasharray="8 9"></path></g><g transform="translate(1708.6181061248299 91.18886430023758) rotate(0 84.5 13)"><text x="84.5" y="19" font-family="Virgil, Segoe UI Emoji" font-size="20px" fill="#000000" text-anchor="middle" style="white-space: pre;" direction="ltr">Add IP to queue</text></g><g stroke-linecap="round"><g transform="translate(1521.3431624542395 103.36033465586047) rotate(0 90.10977742269574 0)"><path d="M0 0 C30.04 0, 150.18 0, 180.22 0" stroke="#000000" stroke-width="1.5" fill="none" stroke-dasharray="8 9"></path></g></g><mask></mask><g stroke-linecap="round"><g transform="translate(1790.2268833198236 156.3660860809756) rotate(0 0 56.37884469762247)"><path d="M0 0 C0 18.79, 0 93.96, 0 112.76" stroke="#000000" stroke-width="1.5" fill="none" stroke-dasharray="8 9"></path></g><g transform="translate(1790.2268833198236 156.3660860809756) rotate(0 0 56.37884469762247)"><path d="M-10.26 84.57 C-7.66 91.7, -5.07 98.84, 0 112.76" stroke="#000000" stroke-width="1.5" fill="none"></path></g><g transform="translate(1790.2268833198236 156.3660860809756) rotate(0 0 56.37884469762247)"><path d="M10.26 84.57 C7.66 91.7, 5.07 98.84, 0 112.76" stroke="#000000" stroke-width="1.5" fill="none"></path></g></g><mask></mask><g stroke-linecap="round" transform="translate(1999.932184572976 49.43285278585631) rotate(0 90.5 52)"><path d="M26 0 M26 0 C71.56 0, 117.12 0, 155 0 M155 0 C172.33 0, 181 8.67, 181 26 M181 26 C181 41.32, 181 56.63, 181 78 M181 78 C181 95.33, 172.33 104, 155 104 M155 104 C120.98 104, 86.97 104, 26 104 M26 104 C8.67 104, 0 95.33, 0 78 M0 78 C0 64.73, 0 51.47, 0 26 M0 26 C0 8.67, 8.67 0, 26 0" stroke="#000000" stroke-width="1.5" fill="none" stroke-dasharray="8 9"></path></g><g transform="translate(2021.932184572976 87.93285278585631) rotate(0 68.5 13)"><text x="68.5" y="19" font-family="Virgil, Segoe UI Emoji" font-size="20px" fill="#000000" text-anchor="middle" style="white-space: pre;" direction="ltr">Get IP Data</text></g><g stroke-linecap="round"><g transform="translate(1882.7460130800246 104.32407559086255) rotate(0 59.7519379701298 0)"><path d="M0 0 C19.92 0, 99.59 0, 119.5 0" stroke="#000000" stroke-width="1.5" fill="none" stroke-dasharray="8 9"></path></g></g><mask></mask><g stroke-linecap="round"><g transform="translate(2186.324407605684 99.50537091585215) rotate(0 75.65366339766433 0)"><path d="M0 0 C25.22 0, 126.09 0, 151.31 0" stroke="#000000" stroke-width="1.5" fill="none" stroke-dasharray="8 9"></path></g><g transform="translate(2186.324407605684 99.50537091585215) rotate(0 75.65366339766433 0)"><path d="M28.19 -10.26 C18.39 -6.69, 8.59 -3.13, 0 0" stroke="#000000" stroke-width="1.5" fill="none"></path></g><g transform="translate(2186.324407605684 99.50537091585215) rotate(0 75.65366339766433 0)"><path d="M28.19 10.26 C18.39 6.69, 8.59 3.13, 0 0" stroke="#000000" stroke-width="1.5" fill="none"></path></g><g transform="translate(2186.324407605684 99.50537091585215) rotate(0 75.65366339766433 0)"><path d="M123.12 10.26 C132.92 6.69, 142.72 3.13, 151.31 0" stroke="#000000" stroke-width="1.5" fill="none"></path></g><g transform="translate(2186.324407605684 99.50537091585215) rotate(0 75.65366339766433 0)"><path d="M123.12 -10.26 C132.92 -6.69, 142.72 -3.13, 151.31 0" stroke="#000000" stroke-width="1.5" fill="none"></path></g></g><mask></mask><g stroke-linecap="round" transform="translate(1999.932184572976 472.9969937192765) rotate(0 90.5 52)"><path d="M26 0 M26 0 C60.64 0, 95.28 0, 155 0 M155 0 C172.33 0, 181 8.67, 181 26 M181 26 C181 45.07, 181 64.14, 181 78 M181 78 C181 95.33, 172.33 104, 155 104 M155 104 C113.58 104, 72.16 104, 26 104 M26 104 C8.67 104, 0 95.33, 0 78 M0 78 C0 59.39, 0 40.78, 0 26 M0 26 C0 8.67, 8.67 0, 26 0" stroke="#000000" stroke-width="1.5" fill="none" stroke-dasharray="8 9"></path></g><g transform="translate(2005.432184572976 511.4969937192765) rotate(0 85 13)"><text x="85" y="19" font-family="Virgil, Segoe UI Emoji" font-size="20px" fill="#000000" text-anchor="middle" style="white-space: pre;" direction="ltr">Save to ip_data</text></g><g stroke-linecap="round" transform="translate(1702.6181061248299 472.9969937192765) rotate(0 90.5 52)"><path d="M26 0 M26 0 C54.44 0, 82.89 0, 155 0 M155 0 C172.33 0, 181 8.67, 181 26 M181 26 C181 36.77, 181 47.54, 181 78 M181 78 C181 95.33, 172.33 104, 155 104 M155 104 C104.16 104, 53.31 104, 26 104 M26 104 C8.67 104, 0 95.33, 0 78 M0 78 C0 67.33, 0 56.67, 0 26 M0 26 C0 8.67, 8.67 0, 26 0" stroke="#000000" stroke-width="1.5" fill="none" stroke-dasharray="8 9"></path></g><g transform="translate(1709.6181061248299 497.9969937192765) rotate(0 83.5 26)"><text x="83.5" y="19" font-family="Virgil, Segoe UI Emoji" font-size="20px" fill="#000000" text-anchor="middle" style="white-space: pre;" direction="ltr">Remove IP from </text><text x="83.5" y="45" font-family="Virgil, Segoe UI Emoji" font-size="20px" fill="#000000" text-anchor="middle" style="white-space: pre;" direction="ltr">queue</text></g><g stroke-linecap="round"><g transform="translate(2093.805277845483 154.43860421097145) rotate(0 0 159.4991247428465)"><path d="M0 0 C0 53.17, 0 265.83, 0 319" stroke="#000000" stroke-width="1.5" fill="none" stroke-dasharray="8 9"></path></g></g><mask></mask><g stroke-linecap="round"><g transform="translate(2094.769018780485 578.4846156118927) rotate(0 -139.17560341700732 58.3052509924853)"><path d="M0 0 C-46.39 19.44, -231.96 97.18, -278.35 116.61" stroke="#000000" stroke-width="1.5" fill="none" stroke-dasharray="8 9"></path></g><g transform="translate(2094.769018780485 578.4846156118927) rotate(0 -139.17560341700732 58.3052509924853)"><path d="M-256.31 96.25 C-260.72 100.33, -265.13 104.4, -278.35 116.61" stroke="#000000" stroke-width="1.5" fill="none"></path></g><g transform="translate(2094.769018780485 578.4846156118927) rotate(0 -139.17560341700732 58.3052509924853)"><path d="M-248.39 115.18 C-254.38 115.47, -260.38 115.75, -278.35 116.61" stroke="#000000" stroke-width="1.5" fill="none"></path></g></g><mask></mask><g stroke-linecap="round"><g transform="translate(2000.32240715028 526.4426051217795) rotate(0 -57.342585632624605 0)"><path d="M0 0 C-19.11 0, -95.57 0, -114.69 0" stroke="#000000" stroke-width="1.5" fill="none" stroke-dasharray="8 9"></path></g></g><mask></mask><g stroke-linecap="round"><g transform="translate(1793.1181061248299 471.5093718266602) rotate(0 0 -44.33208301009631)"><path d="M0 0 C0 -14.78, 0 -73.89, 0 -88.66" stroke="#000000" stroke-width="1.5" fill="none" stroke-dasharray="8 9"></path></g><g transform="translate(1793.1181061248299 471.5093718266602) rotate(0 0 -44.33208301009631)"><path d="M10.26 -60.47 C6.22 -71.58, 2.18 -82.69, 0 -88.66" stroke="#000000" stroke-width="1.5" fill="none"></path></g><g transform="translate(1793.1181061248299 471.5093718266602) rotate(0 0 -44.33208301009631)"><path d="M-10.26 -60.47 C-6.22 -71.58, -2.18 -82.69, 0 -88.66" stroke="#000000" stroke-width="1.5" fill="none"></path></g></g><mask></mask><g transform="translate(1532.7916495693003 53.38321538577247) rotate(0 16.5 13)"><text x="16.5" y="19" font-family="Virgil, Segoe UI Emoji" font-size="20px" fill="#000000" text-anchor="middle" style="white-space: pre;" direction="ltr">Yes</text></g><g stroke-linecap="round"><g transform="translate(1542.5017074255716 329.49561554656975) rotate(0 78.66893849637029 0)"><path d="M0 0 C26.22 0, 131.11 0, 157.34 0" stroke="#000000" stroke-width="1.5" fill="none" stroke-dasharray="8 9"></path></g><g transform="translate(1542.5017074255716 329.49561554656975) rotate(0 78.66893849637029 0)"><path d="M129.15 10.26 C136.81 7.47, 144.48 4.68, 157.34 0" stroke="#000000" stroke-width="1.5" fill="none"></path></g><g transform="translate(1542.5017074255716 329.49561554656975) rotate(0 78.66893849637029 0)"><path d="M129.15 -10.26 C136.81 -7.47, 144.48 -4.68, 157.34 0" stroke="#000000" stroke-width="1.5" fill="none"></path></g></g><mask></mask><g transform="translate(1556.8517694158213 297.20875060279354) rotate(0 47.5 13)"><text x="47.5" y="19" font-family="Virgil, Segoe UI Emoji" font-size="20px" fill="#000000" text-anchor="middle" style="white-space: pre;" direction="ltr">event_IP</text></g><g transform="translate(1809.6069054622235 196.6657041610339) rotate(0 37 13)"><text x="37" y="19" font-family="Virgil, Segoe UI Emoji" font-size="20px" fill="#000000" text-anchor="middle" style="white-space: pre;" direction="ltr">new_IP</text></g><g stroke-linecap="round" transform="translate(10 10) rotate(0 174.69929790228463 292.9739778485517)"><path d="M32 0 M32 0 C102.38 0, 172.75 0, 317.4 0 M317.4 0 C338.73 0, 349.4 10.67, 349.4 32 M349.4 32 C349.4 229.05, 349.4 426.1, 349.4 553.95 M349.4 553.95 C349.4 575.28, 338.73 585.95, 317.4 585.95 M317.4 585.95 C260.03 585.95, 202.66 585.95, 32 585.95 M32 585.95 C10.67 585.95, 0 575.28, 0 553.95 M0 553.95 C0 403.78, 0 253.61, 0 32 M0 32 C0 10.67, 10.67 0, 32 0" stroke="#000000" stroke-width="1.5" fill="none" stroke-dasharray="1.5 7"></path></g><g stroke-linecap="round" transform="translate(92.60367625435913 250.9739778485516) rotate(0 90.5 52)"><path d="M26 0 M26 0 C62.82 0, 99.64 0, 155 0 M26 0 C67.28 0, 108.55 0, 155 0 M155 0 C172.33 0, 181 8.67, 181 26 M155 0 C172.33 0, 181 8.67, 181 26 M181 26 C181 36.76, 181 47.52, 181 78 M181 26 C181 45.01, 181 64.01, 181 78 M181 78 C181 95.33, 172.33 104, 155 104 M181 78 C181 95.33, 172.33 104, 155 104 M155 104 C121.97 104, 88.95 104, 26 104 M155 104 C123.15 104, 91.3 104, 26 104 M26 104 C8.67 104, 0 95.33, 0 78 M26 104 C8.67 104, 0 95.33, 0 78 M0 78 C0 61.14, 0 44.27, 0 26 M0 78 C0 61.45, 0 44.91, 0 26 M0 26 C0 8.67, 8.67 0, 26 0 M0 26 C0 8.67, 8.67 0, 26 0" stroke="#000000" stroke-width="1" fill="none"></path></g><g transform="translate(98.60367625435913 275.4739778485516) rotate(0 84.5 26)"><text x="84.5" y="19" font-family="Virgil, Segoe UI Emoji" font-size="20px" fill="#000000" text-anchor="middle" style="white-space: pre;" direction="ltr">Network Monitor </text><text x="84.5" y="45" font-family="Virgil, Segoe UI Emoji" font-size="20px" fill="#000000" text-anchor="middle" style="white-space: pre;" direction="ltr">Client</text></g><g stroke-linecap="round" transform="translate(92.60367625435913 130.39348418773557) rotate(0 90.5 52)"><path d="M26 0 M26 0 C75.31 0, 124.63 0, 155 0 M26 0 C60.29 0, 94.58 0, 155 0 M155 0 C172.33 0, 181 8.67, 181 26 M155 0 C172.33 0, 181 8.67, 181 26 M181 26 C181 38.19, 181 50.38, 181 78 M181 26 C181 44.55, 181 63.09, 181 78 M181 78 C181 95.33, 172.33 104, 155 104 M181 78 C181 95.33, 172.33 104, 155 104 M155 104 C114.92 104, 74.83 104, 26 104 M155 104 C111.81 104, 68.62 104, 26 104 M26 104 C8.67 104, 0 95.33, 0 78 M26 104 C8.67 104, 0 95.33, 0 78 M0 78 C0 66.44, 0 54.87, 0 26 M0 78 C0 61.24, 0 44.48, 0 26 M0 26 C0 8.67, 8.67 0, 26 0 M0 26 C0 8.67, 8.67 0, 26 0" stroke="#000000" stroke-width="1" fill="none"></path></g><g transform="translate(98.60367625435913 154.89348418773557) rotate(0 84.5 26)"><text x="84.5" y="19" font-family="Virgil, Segoe UI Emoji" font-size="20px" fill="#000000" text-anchor="middle" style="white-space: pre;" direction="ltr">Network Monitor </text><text x="84.5" y="45" font-family="Virgil, Segoe UI Emoji" font-size="20px" fill="#000000" text-anchor="middle" style="white-space: pre;" direction="ltr">Client</text></g><g stroke-linecap="round" transform="translate(92.60367625435913 370.19811050080943) rotate(0 90.5 52)"><path d="M26 0 M26 0 C64.64 0, 103.28 0, 155 0 M26 0 C54.16 0, 82.32 0, 155 0 M155 0 C172.33 0, 181 8.67, 181 26 M155 0 C172.33 0, 181 8.67, 181 26 M181 26 C181 39.38, 181 52.76, 181 78 M181 26 C181 44.62, 181 63.25, 181 78 M181 78 C181 95.33, 172.33 104, 155 104 M181 78 C181 95.33, 172.33 104, 155 104 M155 104 C112.83 104, 70.65 104, 26 104 M155 104 C118.19 104, 81.37 104, 26 104 M26 104 C8.67 104, 0 95.33, 0 78 M26 104 C8.67 104, 0 95.33, 0 78 M0 78 C0 60.18, 0 42.37, 0 26 M0 78 C0 66.03, 0 54.07, 0 26 M0 26 C0 8.67, 8.67 0, 26 0 M0 26 C0 8.67, 8.67 0, 26 0" stroke="#000000" stroke-width="1" fill="none"></path></g><g transform="translate(98.60367625435913 394.69811050080943) rotate(0 84.5 26)"><text x="84.5" y="19" font-family="Virgil, Segoe UI Emoji" font-size="20px" fill="#000000" text-anchor="middle" style="white-space: pre;" direction="ltr">Network Monitor </text><text x="84.5" y="45" font-family="Virgil, Segoe UI Emoji" font-size="20px" fill="#000000" text-anchor="middle" style="white-space: pre;" direction="ltr">Client</text></g><g transform="translate(50.53077244502151 43.58436598840831) rotate(0 42 13)"><text x="42" y="19" font-family="Virgil, Segoe UI Emoji" font-size="20px" fill="#000000" text-anchor="middle" style="white-space: pre;" direction="ltr">External</text></g><g stroke-linecap="round"><g transform="translate(361.27664391958325 309.29394787921706) rotate(0 131.60856007344094 0)"><path d="M0 0 C43.87 0, 219.35 0, 263.22 0 M0 0 C43.87 0, 219.35 0, 263.22 0" stroke="#000000" stroke-width="4" fill="none"></path></g><g transform="translate(361.27664391958325 309.29394787921706) rotate(0 131.60856007344094 0)"><path d="M0 0 L13.59 -6.34 L13.59 6.34 L0 0" stroke="none" stroke-width="0" fill="#000000" fill-rule="evenodd"></path><path d="M0 0 C4.16 -1.94, 8.33 -3.88, 13.59 -6.34 M0 0 C3.58 -1.67, 7.16 -3.34, 13.59 -6.34 M13.59 -6.34 C13.59 -3.71, 13.59 -1.08, 13.59 6.34 M13.59 -6.34 C13.59 -3.75, 13.59 -1.16, 13.59 6.34 M13.59 6.34 C9.25 4.31, 4.91 2.29, 0 0 M13.59 6.34 C8.68 4.05, 3.77 1.76, 0 0 M0 0 C0 0, 0 0, 0 0 M0 0 C0 0, 0 0, 0 0" stroke="#000000" stroke-width="4" fill="none"></path></g><g transform="translate(361.27664391958325 309.29394787921706) rotate(0 131.60856007344094 0)"><path d="M263.22 0 L249.62 6.34 L249.62 -6.34 L263.22 0" stroke="none" stroke-width="0" fill="#000000" fill-rule="evenodd"></path><path d="M263.22 0 C259.05 1.94, 254.89 3.88, 249.62 6.34 M263.22 0 C259.64 1.67, 256.06 3.34, 249.62 6.34 M249.62 6.34 C249.62 3.71, 249.62 1.08, 249.62 -6.34 M249.62 6.34 C249.62 3.75, 249.62 1.16, 249.62 -6.34 M249.62 -6.34 C253.97 -4.31, 258.31 -2.29, 263.22 0 M249.62 -6.34 C254.53 -4.05, 259.45 -1.76, 263.22 0 M263.22 0 C263.22 0, 263.22 0, 263.22 0 M263.22 0 C263.22 0, 263.22 0, 263.22 0" stroke="#000000" stroke-width="4" fill="none"></path></g></g><mask></mask><g transform="translate(422.3852039930242 267.69249984426085) rotate(0 70.5 13)"><text x="70.5" y="19" font-family="Virgil, Segoe UI Emoji" font-size="20px" fill="#000000" text-anchor="middle" style="white-space: pre;" direction="ltr">gRPC Streams</text></g><g transform="translate(1809.6069054622235 418.2282614351964) rotate(0 37 13)"><text x="37" y="19" font-family="Virgil, Segoe UI Emoji" font-size="20px" fill="#000000" text-anchor="middle" style="white-space: pre;" direction="ltr">new_IP</text></g></svg>